<svg xmlns="http://www.w3.org/2000/svg" viewBox="0 0 512 512">
  <rect width="512" height="512" rx="64" fill="#1c1a22"/>
  
  <!-- O - fully closed block style with purple accent -->
  <rect x="48" y="96" width="64" height="64" fill="#a78bfa"/>
  <rect x="112" y="96" width="64" height="64" fill="#a78bfa"/>
  <rect x="176" y="96" width="64" height="64" fill="#a78bfa"/>
  <rect x="48" y="160" width="64" height="64" fill="#a78bfa"/>
  <rect x="176" y="160" width="64" height="64" fill="#a78bfa"/>
  <rect x="48" y="224" width="64" height="64" fill="#a78bfa"/>
  <rect x="176" y="224" width="64" height="64" fill="#a78bfa"/>
  <rect x="48" y="288" width="64" height="64" fill="#a78bfa"/>
  <rect x="176" y="288" width="64" height="64" fill="#a78bfa"/>
  <rect x="48" y="352" width="64" height="64" fill="#a78bfa"/>
  <rect x="112" y="352" width="64" height="64" fill="#a78bfa"/>
  <rect x="176" y="352" width="64" height="64" fill="#a78bfa"/>
  
  <!-- T - block style with white -->
  <rect x="272" y="96" width="64" height="64" fill="#fff"/>
  <rect x="336" y="96" width="64" height="64" fill="#fff"/>
  <rect x="400" y="96" width="64" height="64" fill="#fff"/>
  <rect x="336" y="160" width="64" height="64" fill="#fff"/>
  <rect x="336" y="224" width="64" height="64" fill="#fff"/>
  <rect x="336" y="288" width="64" height="64" fill="#fff"/>
  <rect x="336" y="352" width="64" height="64" fill="#fff"/>
</svg>
