<svg xmlns="http://www.w3.org/2000/svg" viewBox="0 0 32 32">
  <rect width="32" height="32" fill="#1c1a22"/>
  
  <!-- O - fully closed block style with purple accent -->
  <rect x="3" y="6" width="4" height="4" fill="#a78bfa"/>
  <rect x="7" y="6" width="4" height="4" fill="#a78bfa"/>
  <rect x="11" y="6" width="4" height="4" fill="#a78bfa"/>
  <rect x="3" y="10" width="4" height="4" fill="#a78bfa"/>
  <rect x="11" y="10" width="4" height="4" fill="#a78bfa"/>
  <rect x="3" y="14" width="4" height="4" fill="#a78bfa"/>
  <rect x="11" y="14" width="4" height="4" fill="#a78bfa"/>
  <rect x="3" y="18" width="4" height="4" fill="#a78bfa"/>
  <rect x="11" y="18" width="4" height="4" fill="#a78bfa"/>
  <rect x="3" y="22" width="4" height="4" fill="#a78bfa"/>
  <rect x="7" y="22" width="4" height="4" fill="#a78bfa"/>
  <rect x="11" y="22" width="4" height="4" fill="#a78bfa"/>
  
  <!-- T - block style with white -->
  <rect x="17" y="6" width="4" height="4" fill="#a78bfa"/>
  <rect x="21" y="6" width="4" height="4" fill="#a78bfa"/>
  <rect x="25" y="6" width="4" height="4" fill="#a78bfa"/>
  <rect x="21" y="10" width="4" height="4" fill="#a78bfa"/>
  <rect x="21" y="14" width="4" height="4" fill="#a78bfa"/>
  <rect x="21" y="18" width="4" height="4" fill="#a78bfa"/>
  <rect x="21" y="22" width="4" height="4" fill="#a78bfa"/>
</svg>
